<svg xmlns="http://www.w3.org/2000/svg" xmlns:xlink="http://www.w3.org/1999/xlink" id="Layer_1" x="0" y="0" version="1.1" viewBox="0 0 573 380" xml:space="preserve" style="enable-background:new 0 0 573 380"><style type="text/css">.st0{fill:#fff}</style><g id="Layer_x0020_1"><g id="_163765264"><polygon points="199 155 408 155 408 223 199 223" class="st0"/></g><g id="_163765240"><path d="M190,380C85.1,380,0,295,0,190C0,85.1,85.1,0.6,190,0c24.6-0.1,56,0,56,0v66c0,0-27.9,0-58.5,0 C119.3,66,64,121.3,64,189.5S119.3,313,187.5,313c34.1,0,58.5,0,58.5,0v66C246,379,215.3,380,190,380z" class="st0"/></g><g id="_163765840"><path d="M339,313c0,0,12.3,0,46.5,0c68.2,0,123.5-55.3,123.5-123.5S453.7,66,385.5,66c-30.7,0-45.5,1-45.5,1v60h-66V0 c0,0,84.4-0.1,109,0c104.9,0.6,190,85,190,190c0,104.9-85,190-190,190c-25.3,0-109,0-109,0V250h66L339,313z" class="st0"/></g></g></svg>