<svg xmlns="http://www.w3.org/2000/svg" xmlns:xlink="http://www.w3.org/1999/xlink" id="Layer_1" x="0" y="0" version="1.1" viewBox="0 0 768 512" xml:space="preserve" style="enable-background:new 0 0 768 512"><style type="text/css">.st0{fill:#fff}</style><g id="Layer_x0020_1"><g id="_163765264"><polygon points="297 222 506 222 506 290 297 290" class="st0"/></g><g id="_163765240"><path d="M288,447c-104.9,0-190-85-190-190c0-104.9,85.1-189.4,190-190c24.6-0.1,56,0,56,0v66c0,0-27.9,0-58.5,0 C217.3,133,162,188.3,162,256.5s55.3,123.5,123.5,123.5c34.1,0,58.5,0,58.5,0v66C344,446,313.3,447,288,447z" class="st0"/></g><g id="_163765840"><path d="M437,380c0,0,12.3,0,46.5,0c68.2,0,123.5-55.3,123.5-123.5s-55.3-123.5-123.5-123.5c-30.7,0-45.5,1-45.5,1v60 h-66V67c0,0,84.4-0.1,109,0c104.9,0.6,190,85,190,190c0,104.9-85,190-190,190c-25.3,0-109,0-109,0V317h66L437,380z" class="st0"/></g></g></svg>